<svg width="64" height="13" viewBox="0 0 64 13" fill="none" xmlns="http://www.w3.org/2000/svg">
<path d="M0.532493 12L2.34357 1.09091H9.79031L9.42809 3.23224H4.61808L4.25586 5.46946H8.5918L8.22958 7.61612H3.89364L3.16921 12H0.532493ZM13.7547 1.09091L11.9436 12H9.30691L11.118 1.09091H13.7547ZM14.6909 3.23224L15.0531 1.09091H24.2736L23.9114 3.23224H20.6035L19.1547 12H16.5552L18.0041 3.23224H14.6909ZM34.8458 1.09091L33.0347 12H30.7975L27.5109 5.70383H27.4363L26.387 12H23.7503L25.5613 1.09091H27.8305L31.0905 7.37642H31.181L32.2144 1.09091H34.8458ZM34.6926 12L36.5037 1.09091H44.1103L43.748 3.23224H38.7782L38.416 5.46946H42.997L42.6348 7.61612H38.0538L37.6916 9.85866H42.6614L42.2992 12H34.6926ZM51.1042 4.38281C51.1326 3.98153 51.0261 3.67081 50.7846 3.45064C50.5467 3.23047 50.1703 3.12038 49.6554 3.12038C49.3145 3.12038 49.0233 3.16477 48.7818 3.25355C48.5403 3.33878 48.3503 3.45952 48.2118 3.61577C48.0733 3.76847 47.9863 3.94602 47.9508 4.14844C47.9189 4.30824 47.9277 4.45028 47.9775 4.57457C48.0272 4.69886 48.1142 4.80895 48.2385 4.90483C48.3663 5.00071 48.5243 5.08416 48.7125 5.15518C48.9043 5.22621 49.1191 5.28835 49.3571 5.34162L50.252 5.55469C50.7704 5.67188 51.2196 5.82812 51.5996 6.02344C51.9831 6.2152 52.2939 6.4478 52.5318 6.72124C52.7697 6.99112 52.9331 7.30185 53.0218 7.65341C53.1106 8.00497 53.1177 8.39915 53.0431 8.83594C52.9295 9.52486 52.6578 10.1161 52.2282 10.6097C51.802 11.1033 51.2445 11.4815 50.5556 11.7443C49.8702 12.0071 49.073 12.1385 48.1639 12.1385C47.2548 12.1385 46.4824 12.0018 45.8468 11.7283C45.2147 11.4513 44.7566 11.0341 44.4725 10.4766C44.1884 9.91903 44.112 9.21591 44.2434 8.36719H46.763C46.7239 8.71875 46.7683 9.01172 46.8961 9.24609C47.0275 9.48047 47.2299 9.65803 47.5034 9.77876C47.7768 9.8995 48.1071 9.95987 48.4941 9.95987C48.8493 9.95987 49.16 9.91193 49.4263 9.81605C49.6962 9.72017 49.911 9.587 50.0708 9.41655C50.2342 9.24609 50.3336 9.05078 50.3691 8.83061C50.4047 8.6282 50.3709 8.45241 50.2679 8.30327C50.1685 8.15412 49.998 8.0245 49.7566 7.91442C49.5186 7.80433 49.2061 7.7049 48.8191 7.61612L47.7271 7.34979C46.8251 7.12962 46.1415 6.77805 45.6763 6.2951C45.2147 5.81214 45.0513 5.15696 45.1863 4.32955C45.2999 3.65128 45.5804 3.05824 46.0279 2.55043C46.4789 2.04261 47.0488 1.64844 47.7377 1.3679C48.4302 1.08381 49.1919 0.941761 50.0229 0.941761C50.8681 0.941761 51.5783 1.08558 52.1536 1.37322C52.7324 1.65732 53.1497 2.05859 53.4054 2.57706C53.6646 3.09197 53.7392 3.69389 53.6291 4.38281H51.1042ZM61.0066 4.38281C61.035 3.98153 60.9284 3.67081 60.687 3.45064C60.449 3.23047 60.0726 3.12038 59.5577 3.12038C59.2168 3.12038 58.9256 3.16477 58.6841 3.25355C58.4426 3.33878 58.2527 3.45952 58.1142 3.61577C57.9757 3.76847 57.8887 3.94602 57.8532 4.14844C57.8212 4.30824 57.8301 4.45028 57.8798 4.57457C57.9295 4.69886 58.0165 4.80895 58.1408 4.90483C58.2686 5.00071 58.4267 5.08416 58.6149 5.15518C58.8066 5.22621 59.0215 5.28835 59.2594 5.34162L60.1543 5.55469C60.6728 5.67188 61.122 5.82812 61.502 6.02344C61.8855 6.2152 62.1962 6.4478 62.4341 6.72124C62.6721 6.99112 62.8354 7.30185 62.9242 7.65341C63.013 8.00497 63.0201 8.39915 62.9455 8.83594C62.8319 9.52486 62.5602 10.1161 62.1305 10.6097C61.7044 11.1033 61.1468 11.4815 60.4579 11.7443C59.7725 12.0071 58.9753 12.1385 58.0662 12.1385C57.1571 12.1385 56.3848 12.0018 55.7491 11.7283C55.117 11.4513 54.6589 11.0341 54.3748 10.4766C54.0907 9.91903 54.0144 9.21591 54.1458 8.36719H56.6653C56.6262 8.71875 56.6706 9.01172 56.7985 9.24609C56.9299 9.48047 57.1323 9.65803 57.4057 9.77876C57.6792 9.8995 58.0094 9.95987 58.3965 9.95987C58.7516 9.95987 59.0623 9.91193 59.3287 9.81605C59.5985 9.72017 59.8134 9.587 59.9732 9.41655C60.1365 9.24609 60.236 9.05078 60.2715 8.83061C60.307 8.6282 60.2733 8.45241 60.1703 8.30327C60.0708 8.15412 59.9004 8.0245 59.6589 7.91442C59.421 7.80433 59.1085 7.7049 58.7214 7.61612L57.6294 7.34979C56.7275 7.12962 56.0439 6.77805 55.5787 6.2951C55.117 5.81214 54.9537 5.15696 55.0886 4.32955C55.2022 3.65128 55.4828 3.05824 55.9302 2.55043C56.3812 2.04261 56.9512 1.64844 57.6401 1.3679C58.3326 1.08381 59.0943 0.941761 59.9252 0.941761C60.7704 0.941761 61.4806 1.08558 62.0559 1.37322C62.6348 1.65732 63.052 2.05859 63.3077 2.57706C63.5669 3.09197 63.6415 3.69389 63.5314 4.38281H61.0066Z" fill="#2EC62C"/>
</svg>
